<?xml version="1.0" encoding="UTF-8"?>
<svg width="120" height="50" viewBox="0 0 120 50" fill="none" xmlns="http://www.w3.org/2000/svg">
  <path d="M14.0781 35H3.64062V14.8438H14.0781V18.1719H7.5V23.1719H13.5469V26.5H7.5V31.6328H14.0781V35Z" fill="#0065DB"/>
  <path d="M26.2969 35H22.625L16.7969 14.8438H20.9219L24.5 28.7656L28.0781 14.8438H32.1562L26.2969 35Z" fill="#0065DB"/>
  <path d="M49.5 31.6328V35H38.8125V14.8438H42.6719V31.6328H49.5Z" fill="#0065DB"/>
  <path d="M57.7344 35.3125C56.0052 35.3125 54.526 34.9167 53.2969 34.125C52.0677 33.3229 51.151 32.2135 50.5469 30.7969C49.9531 29.3698 49.6562 27.7031 49.6562 25.7969V24.0469C49.6562 22.1406 49.9583 20.474 50.5625 19.0469C51.1667 17.6198 52.0573 16.5156 53.2344 15.7344C54.4219 14.9531 55.8073 14.5625 57.3906 14.5625C58.9531 14.5625 60.2917 14.9427 61.4062 15.7031C62.5208 16.4531 63.3646 17.5208 63.9375 18.9062C64.5208 20.2812 64.8125 21.901 64.8125 23.7656V25.5156H53.5469V25.6875C53.5677 26.9062 53.7448 27.9948 54.0781 28.9531C54.4115 29.9115 54.9167 30.6615 55.5938 31.2031C56.2708 31.7448 57.1354 32.0156 58.1875 32.0156C59.2292 32.0156 60.099 31.7865 60.7969 31.3281C61.4948 30.8594 62.0833 30.2396 62.5625 29.4688L64.4062 31.3438C63.9167 32.2708 63.1719 33.0521 62.1719 33.6875C61.1823 34.3125 59.901 34.625 58.3281 34.625C58.1406 34.75 57.9375 34.8333 57.7188 34.875C57.5104 35 57.4896 35.3125 57.7344 35.3125ZM57.3906 17.875C56.1198 17.875 55.0885 18.3698 54.2969 19.3594C53.5052 20.349 53.0573 21.7396 52.9531 23.5312H61.2812V23.1875C61.2396 21.6667 60.9115 20.3958 60.2969 19.375C59.6823 18.375 58.7031 17.875 57.3906 17.875Z" fill="#FF5B00"/>
  <path d="M81.4688 35H77.6094V14.8438H81.4688V23.2656H90.0625V14.8438H93.9219V35H90.0625V26.5H81.4688V35Z" fill="#FF5B00"/>
  <path d="M111.359 25.625C111.359 27.75 111.078 29.5677 110.516 31.0781C109.953 32.5781 109.115 33.7188 108 34.5C106.885 35.2812 105.516 35.6719 103.891 35.6719C102.276 35.6719 100.911 35.276 99.7969 34.4844C98.6823 33.6823 97.8385 32.5521 97.2656 31.0938C96.6927 29.625 96.3958 27.8698 96.375 25.8281V24.1875C96.375 22.0625 96.6562 20.25 97.2188 18.75C97.7812 17.25 98.6198 16.1094 99.7344 15.3281C100.859 14.5469 102.234 14.1562 103.859 14.1562C105.474 14.1562 106.833 14.5469 107.938 15.3281C109.052 16.1094 109.891 17.25 110.453 18.75C111.026 20.25 111.318 22.0521 111.328 24.1562V25.625H111.359ZM107.484 24.1562C107.484 22.2604 107.255 20.7812 106.797 19.7188C106.339 18.6458 105.682 17.875 104.828 17.4062C103.984 16.9375 102.995 16.7031 101.859 16.7031C100.734 16.7031 99.75 16.9375 98.9062 17.4062C98.0729 17.875 97.4219 18.6458 96.9531 19.7188C96.4844 20.7917 96.25 22.2708 96.25 24.1562V25.625C96.25 27.4896 96.4844 28.9583 96.9531 30.0312C97.4219 31.1042 98.0781 31.8802 98.9219 32.3594C99.7656 32.8281 100.755 33.0625 101.891 33.0625C103.016 33.0625 104 32.8281 104.844 32.3594C105.688 31.8802 106.339 31.1042 106.797 30.0312C107.255 28.9583 107.484 27.4896 107.484 25.625V24.1562Z" fill="#FF5B00"/>
  <path d="M116.562 21.7969V35H112.766V14.8438H116.312L116.562 21.7969ZM126.406 27.4219L126.578 30.0781L126.797 27.4219L129.453 14.8438H132.734L135.375 27.4219L135.578 30.125L135.781 27.4219L137.859 14.8438H141.656L137.766 35H133.875L131.031 21.8906H131L128.141 35H124.266L120.359 14.8438H124.141L126.406 27.4219Z" fill="#FF5B00"/>
</svg> 