<?xml version="1.0" standalone="no"?>
<!DOCTYPE svg PUBLIC "-//W3C//DTD SVG 20010904//EN"
 "http://www.w3.org/TR/2001/REC-SVG-20010904/DTD/svg10.dtd">
<svg version="1.0" xmlns="http://www.w3.org/2000/svg"
 width="149.000000pt" height="32.000000pt" viewBox="0 0 149.000000 32.000000"
 preserveAspectRatio="xMidYMid meet">

<g transform="translate(0.000000,32.000000) scale(0.100000,-0.100000)"
fill="#000000" stroke="none">
<path d="M97 212 c-31 -32 -57 -62 -57 -68 0 -13 113 -124 127 -124 6 0 16 7
23 15 12 14 15 14 30 0 9 -8 23 -15 32 -15 14 0 128 111 128 125 0 4 -25 33
-57 66 -56 59 -79 69 -101 47 -10 -10 -17 -10 -32 0 -11 6 -23 12 -28 12 -4 0
-33 -26 -65 -58z m55 -25 c-18 -18 -32 -38 -32 -43 0 -15 55 -65 63 -57 14 13
7 53 -9 53 -10 0 -1 16 28 50 l43 50 47 -47 48 -47 -42 -43 c-39 -40 -68 -55
-68 -35 0 5 14 21 30 37 36 35 37 42 4 79 -21 23 -28 26 -35 15 -15 -23 -10
-41 12 -46 19 -5 16 -10 -27 -54 l-48 -49 -48 47 -48 47 47 48 c31 32 50 45
57 38 7 -7 -1 -21 -22 -43z"/>
<path d="M490 206 c0 -9 12 -16 32 -18 39 -4 51 -28 14 -28 -31 0 -35 -25 -5
-27 48 -4 33 -33 -17 -33 -40 0 -43 -23 -5 -28 44 -7 69 7 81 43 20 60 -8 105
-66 105 -23 0 -34 -5 -34 -14z"/>
<path d="M624 206 c-3 -7 -4 -40 -2 -72 2 -44 7 -59 18 -59 8 0 16 10 18 23 2
13 10 22 20 22 26 0 62 29 62 50 0 10 -7 26 -16 34 -19 20 -93 21 -100 2z m76
-36 c0 -13 -7 -20 -20 -20 -13 0 -20 7 -20 20 0 13 7 20 20 20 13 0 20 -7 20
-20z"/>
<path d="M781 201 c-25 -25 -28 -77 -5 -109 13 -19 24 -22 57 -20 49 3 52 21
6 28 -42 7 -57 30 -41 64 9 20 19 26 43 26 41 0 34 24 -9 28 -21 2 -37 -3 -51
-17z"/>
<path d="M961 206 c-7 -9 -11 -39 -8 -78 l3 -63 2 67 c2 73 -3 67 67 81 11 3
4 5 -16 6 -21 0 -42 -5 -48 -13z"/>
<path d="M1063 183 c-22 -4 -23 -9 -22 -81 1 -42 4 -67 6 -54 3 16 11 22 32
22 37 0 53 21 49 61 -3 36 -31 58 -65 52z m53 -37 c10 -41 -4 -66 -37 -66 -28
0 -29 2 -29 45 0 43 1 45 30 45 23 0 31 -5 36 -24z"/>
<path d="M1151 167 c-1 -10 6 -34 14 -54 8 -19 15 -44 15 -54 0 -11 -7 -19
-15 -19 -8 0 -15 -4 -15 -10 0 -18 19 -11 34 13 18 28 50 127 43 133 -3 3 -11
-12 -17 -33 -20 -60 -23 -60 -41 -7 -10 27 -18 41 -18 31z"/>
<path d="M1252 123 l2 -58 3 53 c4 52 4 52 38 52 34 0 34 0 38 -52 l3 -53 2
58 2 57 -45 0 -45 0 2 -57z"/>
<path d="M1372 123 l2 -58 3 53 c4 52 4 52 38 52 34 0 34 0 38 -52 l3 -53 2
58 2 57 -45 0 -45 0 2 -57z"/>
</g>
</svg>
