<?xml version="1.0" standalone="no"?>
<!DOCTYPE svg PUBLIC "-//W3C//DTD SVG 20010904//EN"
 "http://www.w3.org/TR/2001/REC-SVG-20010904/DTD/svg10.dtd">
<svg version="1.0" xmlns="http://www.w3.org/2000/svg"
 width="3000.000000pt" height="2000.000000pt" viewBox="0 0 3000.000000 2000.000000"
 preserveAspectRatio="xMidYMid meet">

<g transform="translate(0.000000,2000.000000) scale(0.100000,-0.100000)"
fill="#000000" stroke="none">
<path d="M12645 11039 c-288 -42 -558 -208 -716 -441 -62 -90 -127 -235 -155
-345 -34 -131 -44 -346 -21 -478 108 -620 677 -998 1307 -869 398 82 701 366
805 756 79 295 39 618 -107 870 -157 273 -414 448 -737 502 -100 17 -276 19
-376 5z m305 -270 c88 -14 218 -59 287 -100 77 -46 212 -180 255 -254 90 -156
123 -296 115 -489 -6 -148 -22 -215 -76 -331 -99 -209 -276 -355 -506 -416
-112 -30 -298 -30 -410 0 -142 37 -237 92 -346 201 -86 85 -102 107 -147 200
-73 151 -87 215 -86 390 1 170 20 256 84 385 153 304 485 470 830 414z"/>
<path d="M23851 11028 c-5 -13 -206 -482 -446 -1043 -240 -561 -439 -1028
-442 -1037 -5 -17 7 -18 144 -18 l150 0 133 310 134 310 452 0 452 0 139 -307
140 -308 153 -3 c90 -1 150 1 148 7 -1 5 -214 482 -472 1060 l-469 1051 -104
0 c-98 0 -104 -1 -112 -22z m293 -846 c86 -194 156 -357 156 -362 0 -12 -647
-14 -653 -2 -3 5 257 650 304 752 l12 25 12 -30 c7 -16 83 -189 169 -383z"/>
<path d="M10210 9986 l0 -1056 150 0 150 0 0 444 0 444 253 4 c215 4 263 8
328 26 119 32 214 85 290 161 112 112 159 233 159 412 0 247 -111 439 -311
538 -140 69 -172 73 -621 78 l-398 5 0 -1056z m785 769 c155 -41 240 -155 240
-325 0 -95 -24 -165 -77 -224 -89 -103 -173 -126 -455 -126 l-193 0 0 345 0
345 213 0 c160 0 228 -4 272 -15z"/>
<path d="M14250 9985 l0 -1055 625 0 625 0 0 130 0 130 -480 0 -480 0 0 925 0
925 -145 0 -145 0 0 -1055z"/>
<path d="M15267 11028 c6 -7 182 -231 392 -497 l381 -483 0 -559 0 -559 150 0
150 0 0 556 0 555 383 487 c211 268 386 493 391 500 6 9 -31 12 -171 11 l-178
0 -285 -365 c-156 -200 -287 -364 -290 -364 -3 0 -134 164 -291 365 l-284 365
-179 0 c-141 0 -176 -3 -169 -12z"/>
<path d="M17410 9985 l0 -1055 150 0 150 0 2 822 3 822 329 -412 c246 -307
335 -412 350 -412 15 1 110 113 346 410 179 226 328 410 333 410 4 0 7 -369 7
-820 l0 -820 150 0 150 0 0 1055 0 1055 -139 0 -139 0 -352 -435 c-194 -239
-355 -435 -359 -435 -3 1 -163 197 -355 435 l-349 435 -139 0 -138 0 0 -1055z"/>
<path d="M25280 9985 l0 -1055 625 0 625 0 0 130 0 130 -475 0 -475 0 0 925 0
925 -150 0 -150 0 0 -1055z"/>
<path d="M19840 9975 l0 -1055 655 0 655 0 0 135 0 135 -505 0 -505 0 0 345 0
345 475 0 475 0 0 130 0 130 -475 0 -475 0 0 315 0 315 485 0 485 0 0 130 0
130 -635 0 -635 0 0 -1055z"/>
<path d="M21370 10900 l0 -130 360 0 360 0 0 -925 0 -925 145 0 145 0 2 923 3
922 358 3 357 2 0 130 0 130 -865 0 -865 0 0 -130z"/>
<path d="M19006 8398 c-7 -18 -97 -216 -200 -441 -102 -224 -186 -410 -186
-413 0 -3 14 -4 31 -2 29 3 34 11 99 153 l68 150 219 3 220 2 69 -152 c67
-148 71 -153 102 -156 28 -3 31 -1 24 16 -4 10 -95 210 -202 445 -206 451
-214 464 -244 395z m133 -292 c50 -110 89 -201 87 -203 -2 -2 -88 -2 -193 -1
l-190 3 96 207 c52 115 98 205 102 200 4 -4 48 -97 98 -206z"/>
<path d="M20865 8416 c-229 -56 -376 -277 -337 -507 28 -162 134 -289 288
-345 284 -104 578 62 625 352 37 228 -106 439 -336 499 -70 18 -170 18 -240 1z
m185 -46 c129 -24 237 -106 293 -219 29 -61 32 -74 32 -167 0 -96 -2 -103 -38
-176 -43 -87 -98 -142 -186 -185 -51 -25 -66 -28 -166 -28 -104 0 -114 2 -176
32 -80 39 -150 111 -187 191 -24 50 -27 69 -27 162 0 93 3 112 27 162 53 113
157 197 278 224 70 16 86 16 150 4z"/>
<path d="M22756 8123 c-77 -170 -168 -370 -202 -445 l-63 -138 32 0 c32 0 33
2 102 155 l70 155 219 -2 219 -3 70 -152 c67 -145 72 -153 99 -153 15 0 28 3
28 8 0 4 -90 203 -200 442 -145 316 -204 436 -217 438 -15 2 -45 -58 -157
-305z m254 -7 c49 -109 90 -203 90 -207 0 -5 -85 -9 -190 -9 -104 0 -190 2
-190 5 0 2 30 69 66 147 37 79 80 172 96 207 15 35 30 62 33 59 2 -2 45 -93
95 -202z"/>
<path d="M26091 8414 c-80 -21 -144 -60 -205 -124 -61 -64 -90 -114 -111 -197
-53 -203 41 -415 226 -507 122 -61 260 -70 406 -25 104 32 123 45 123 79 0 35
0 35 -48 11 -140 -71 -312 -81 -434 -24 -82 39 -145 100 -184 179 -27 55 -29
67 -29 174 0 104 3 121 27 172 101 216 373 287 620 162 l48 -24 0 34 c0 32 -3
35 -63 59 -119 48 -268 60 -376 31z"/>
<path d="M14410 7980 l0 -440 30 0 30 0 0 440 0 440 -30 0 -30 0 0 -440z"/>
<path d="M14650 7980 l0 -440 30 0 30 0 2 390 3 391 335 -388 c269 -311 341
-389 363 -391 l27 -3 0 440 0 441 -30 0 -30 0 0 -386 c0 -236 -4 -383 -9 -379
-5 3 -157 176 -337 385 -289 336 -330 380 -355 380 l-29 0 0 -440z"/>
<path d="M15530 8395 l0 -25 165 0 165 0 0 -415 0 -415 30 0 30 0 0 415 0 415
165 0 165 0 0 25 0 25 -360 0 -360 0 0 -25z"/>
<path d="M16360 7980 l0 -440 240 0 240 0 0 25 0 25 -210 0 -210 0 0 185 0
185 200 0 200 0 0 25 0 25 -200 0 -200 0 0 180 0 180 205 0 205 0 0 25 0 25
-235 0 -235 0 0 -440z"/>
<path d="M16990 7980 l0 -440 30 0 30 0 0 216 0 216 104 -4 c148 -5 157 -12
308 -244 118 -179 122 -184 155 -184 25 0 32 4 27 13 -53 90 -259 389 -278
405 -32 24 -32 28 -3 36 40 10 104 74 123 121 22 58 15 150 -16 200 -47 77
-140 105 -345 105 l-135 0 0 -440z m304 375 c102 -27 136 -66 136 -160 0 -75
-23 -116 -82 -147 -37 -19 -62 -23 -170 -26 l-128 -4 0 176 0 176 93 0 c51 0
119 -7 151 -15z"/>
<path d="M17730 7980 l0 -440 35 0 35 0 2 387 3 388 335 -388 c258 -298 340
-387 357 -387 l23 0 0 440 0 440 -30 0 -30 0 -2 -385 -3 -386 -330 385 c-307
358 -332 385 -362 386 l-33 0 0 -440z"/>
<path d="M19480 8395 l0 -25 165 0 165 0 0 -415 0 -415 30 0 30 0 0 415 0 415
165 0 165 0 0 25 0 25 -360 0 -360 0 0 -25z"/>
<path d="M20300 7980 l0 -440 35 0 35 0 0 440 0 440 -35 0 -35 0 0 -440z"/>
<path d="M21610 7980 l0 -440 30 0 30 0 2 390 3 391 335 -388 c270 -313 341
-389 363 -391 l27 -3 0 440 0 441 -30 0 -30 0 0 -386 c0 -251 -3 -383 -10
-379 -5 3 -157 177 -336 386 -288 334 -330 379 -355 379 l-29 0 0 -440z"/>
<path d="M23440 7980 l0 -440 250 0 250 0 0 25 0 25 -220 0 -220 0 0 415 0
415 -30 0 -30 0 0 -440z"/>
<path d="M24530 7981 l0 -441 30 0 30 0 0 209 0 209 148 4 c127 3 152 6 188
25 168 89 165 329 -6 407 -39 17 -70 21 -217 24 l-173 4 0 -441z m363 360 c66
-32 91 -81 85 -168 -4 -71 -24 -106 -79 -138 -29 -17 -56 -21 -171 -23 l-138
-4 0 182 0 182 128 -4 c109 -3 134 -6 175 -27z"/>
<path d="M25190 7980 l0 -440 250 0 250 0 0 25 0 25 -220 0 -220 0 0 415 0
415 -30 0 -30 0 0 -440z"/>
</g>
</svg>
